General
Complete name                    : E:\All Movies\Hollywood\Real.Steel.2011.DVDRip.XviD.400mb- [DARK]\Real.Steel.2011.DVDRip.XviD.400mb- [DARK].flv
Format                           : Flash Video
File size                        : 385 MiB
Duration                         : 2h 6mn
Overall bit rate                 : 424 Kbps
Tagged date                      : UTC 2012-01-03 04:01:47
Tagging application              : inlet media FLVTool2 v1.0.6 - http://www.inlet-media.de/flvtool2

Video
Format                           : AVC
Format/Info                      : Advanced Video Codec
Format profile                   : High@L4.1
Format settings, CABAC           : Yes
Format settings, ReFrames        : 4 frames
Codec ID                         : 7
Duration                         : 2h 6mn
Bit rate                         : 336 Kbps
Width                            : 640 pixels
Height                           : 272 pixels
Display aspect ratio             : 2.35:1
Frame rate mode                  : Constant
Frame rate                       : 23.000 fps
Color space                      : YUV
Chroma subsampling               : 4:2:0
Bit depth                        : 8 bits
Scan type                        : Progressive
Bits/(Pixel*Frame)               : 0.084
Stream size                      : 307 MiB (80%)
Writing library                  : x264 core 115
Encoding settings                : cabac=1 / ref=3 / deblock=1:-1:-1 / analyse=0x3:0x113 / me=hex / subme=7 / psy=1 / psy_rd=1.00:0.00 / mixed_ref=1 / me_range=16 / chroma_me=1 / trellis=1 / 8x8dct=1 / cqm=0 / deadzone=21,11 / fast_pskip=1 / chroma_qp_offset=-2 / threads=12 / sliced_threads=0 / nr=0 / decimate=1 / interlaced=0 / bluray_compat=0 / constrained_intra=0 / bframes=3 / b_pyramid=2 / b_adapt=0 / b_bias=0 / direct=2 / weightb=1 / open_gop=0 / weightp=0 / keyint=320 / keyint_min=25 / scenecut=40 / intra_refresh=0 / rc_lookahead=40 / rc=crf / mbtree=1 / crf=28.0 / qcomp=0.70 / qpmin=10 / qpmax=51 / qpstep=3 / ip_ratio=1.41 / aq=1:1.00

Audio
Format                           : AAC
Format/Info                      : Advanced Audio Codec
Format profile                   : LC
Codec ID                         : 10
Duration                         : 2h 6mn
Bit rate                         : 80.6 Kbps
Channel(s)                       : 2 channels
Channel positions                : Front: L R
Sampling rate                    : 44.1 KHz
Compression mode                 : Lossy
Delay relative to video          : 42ms
Stream size                      : 76.6 MiB (20%)

